<svg width="189" height="92" viewBox="0 0 189 92" fill="none" xmlns="http://www.w3.org/2000/svg">
<path d="M11.1193 11.1188C18.5331 3.70502 28.2496 0 37.9642 0C47.6807 0 57.3972 3.70691 64.8091 11.1188C66.5418 12.8515 68.0706 14.7125 69.3974 16.6679C64.1126 8.96529 55.2493 3.91075 45.2025 3.91075C29.0046 3.91075 15.8756 17.0416 15.8756 33.2376C15.8756 38.4413 17.2365 43.3259 19.6127 47.5613C20.1809 48.6504 20.8584 49.696 21.6342 50.6907C23.0988 52.6649 24.8051 54.4466 26.7095 55.9962L37.9623 67.2491L50.1645 79.4513L37.9642 91.6554L11.1193 64.8086C-3.70644 49.9829 -3.70644 25.9446 11.1193 11.1188Z" fill="url(#paint0_linear)"/>
<path d="M15.604 33.0566C15.604 16.7851 28.7934 3.5957 45.0649 3.5957C55.157 3.5957 64.0618 8.67289 69.3712 16.4095C69.4448 16.5189 69.5203 16.6265 69.592 16.736C69.8128 17.0663 70.028 17.4004 70.2356 17.7401C70.2526 17.7665 70.2677 17.7911 70.2828 17.8175C79.3406 32.5168 77.5022 52.029 64.7602 64.7691L56.2479 73.2814L43.9909 61.0245L52.5032 52.5122C60.6135 44.4019 60.6135 31.205 52.5032 23.0928C48.5736 19.1632 43.3511 17.0002 37.7945 17.0002C32.2379 17.0002 27.0135 19.1632 23.0858 23.0928C16.5062 29.6724 15.2643 39.6003 19.3619 47.4444C16.9705 43.1902 15.604 38.2829 15.604 33.0566Z" fill="url(#paint1_linear)"/>
<path d="M24.5011 38.4865C24.5011 45.6323 30.2993 51.4191 37.4451 51.4191C44.5909 51.4191 50.3891 45.6323 50.3891 38.4865C50.3891 36.3952 49.8927 34.4228 49.0094 32.677C46.886 28.4416 42.4996 25.5425 37.4451 25.5425C32.3905 25.5425 28.0155 28.4302 25.8921 32.6562C24.9975 34.4115 24.5011 36.3839 24.5011 38.4865Z" fill="url(#paint2_linear)"/>
<path d="M182.539 38.3958C178.882 41.9989 174.161 43.675 169.035 43.675C155.836 43.675 150.253 34.587 150.198 25.3499C150.149 16.06 156.191 6.61719 169.035 6.61719C173.855 6.61719 178.427 8.44611 182.081 12.0511L177.613 16.3639C175.278 14.0801 172.132 13.0137 169.037 13.0137C160.456 13.0137 156.751 19.4102 156.802 25.3499C156.851 31.2387 160.255 37.3804 169.037 37.3804C172.132 37.3804 175.633 36.112 177.97 33.7754L182.539 38.3958Z" fill="#322F31"/>
<path d="M92.6504 27.5563V21.9073H97.9333C101.648 21.9073 105.57 20.9126 105.625 17.5133C105.625 15.4202 103.95 12.6475 98.0919 12.6475C94.8493 12.6475 90.4553 13.7989 90.4553 17.1472H83.5511C83.5511 9.24827 91.3972 6.37183 98.1447 6.37183C105.049 6.37183 112.478 9.72012 112.531 17.5133C112.531 20.3898 110.647 23.7381 107.455 24.7327C110.962 25.8841 113.42 29.3362 113.42 32.4221C113.42 41.3666 104.998 44.0355 97.9352 44.0355C90.9782 44.0355 83.0283 41.1062 82.9736 32.7883H89.9325C89.9325 36.5556 95.0059 37.8617 97.9881 37.8617C101.491 37.8617 106.149 36.397 106.149 32.4731C106.149 30.2761 104.945 27.5563 98.3542 27.5563H92.6504Z" fill="#322F31"/>
<path d="M124.984 18.142V23.6344C126.607 21.1241 130.582 19.7633 133.458 19.7633C140.836 19.7633 148.577 22.8492 148.577 31.9523C148.577 40.0607 140.782 44.0885 133.406 44.0885C125.924 44.0885 118.131 40.0607 118.131 31.8485V18.1948C118.131 10.0336 125.663 6.21533 133.196 6.21533C141.148 6.21533 148.209 9.35412 148.209 17.0435H141.304C141.304 13.8009 137.224 12.1777 133.302 12.1777C129.168 12.1249 124.984 14.3747 124.984 18.3496V18.142ZM141.723 31.9523C141.723 27.9245 138.062 25.7804 133.458 25.7804C128.855 25.7804 124.933 27.8736 124.984 31.9523C125.037 35.9801 128.908 37.9166 133.407 37.9166C137.749 37.9147 141.723 35.9801 141.723 31.9523Z" fill="#322F31"/>
<path d="M81.8336 67.8398C81.8336 57.8251 89.4776 50.5208 99.7792 50.5208C105.004 50.5208 109.55 52.31 112.648 55.7942L109.505 58.8424C106.893 56.0849 103.699 54.8279 99.9736 54.8279C92.3295 54.8279 86.671 60.3429 86.671 67.8417C86.671 75.3404 92.3295 80.8555 99.9736 80.8555C103.699 80.8555 106.893 79.5494 109.505 76.7919L112.648 79.8401C109.552 83.3224 105.004 85.1607 99.732 85.1607C89.4776 85.157 81.8336 77.8526 81.8336 67.8398Z" fill="#322F31"/>
<path d="M119.573 50.9077H124.41V84.772H119.573V50.9077Z" fill="#322F31"/>
<path d="M141.297 55.1167H129.687V50.9077H157.697V55.1167H146.087V84.772H141.299V55.1167H141.297Z" fill="#322F31"/>
<path d="M175.552 73.0642V84.772H170.762V72.968L157.314 50.9077H162.491L173.327 68.759L184.21 50.9077H189L175.552 73.0642Z" fill="#322F31"/>
<path d="M186.688 24.7763C186.688 27.3206 186.269 29.8573 185.45 32.3166C185.251 32.9111 185.574 33.5548 186.167 33.7548C186.759 33.9473 187.405 33.6321 187.605 33.0376C188.505 30.3461 188.96 27.5678 188.96 24.7782C188.96 21.9886 188.505 19.2084 187.605 16.5188C187.446 16.0432 187.001 15.7412 186.525 15.7412C186.405 15.7412 186.288 15.7601 186.167 15.7997C185.572 15.9979 185.251 16.6434 185.45 17.2361C186.271 19.6954 186.688 22.2321 186.688 24.7763ZM181.862 32.3185C182.464 32.5167 183.1 32.1958 183.3 31.5975C184.04 29.3722 184.415 27.0771 184.415 24.7763C184.415 22.4756 184.04 20.1786 183.3 17.9552C183.141 17.4776 182.698 17.1775 182.22 17.1775C182.099 17.1775 181.982 17.1964 181.862 17.2342C181.267 17.4323 180.946 18.0778 181.144 18.6705C181.809 20.6655 182.145 22.719 182.145 24.7763C182.145 26.8336 181.809 28.8872 181.144 30.8822C180.946 31.4786 181.267 32.1203 181.862 32.3185Z" fill="#322F31"/>
<defs>
<linearGradient id="paint0_linear" x1="7.59888" y1="68.3287" x2="72.3426" y2="3.58461" gradientUnits="userSpaceOnUse">
<stop stop-color="#A31E22"/>
<stop offset="0.6468" stop-color="#D73627"/>
</linearGradient>
<linearGradient id="paint1_linear" x1="94.9502" y1="3.94601" x2="-1.37776" y2="71.8051" gradientUnits="userSpaceOnUse">
<stop offset="0.4677" stop-color="#D73627"/>
<stop offset="1" stop-color="#A31E22"/>
</linearGradient>
<linearGradient id="paint2_linear" x1="50.3885" y1="38.4804" x2="24.5009" y2="38.4804" gradientUnits="userSpaceOnUse">
<stop stop-color="#FDE200"/>
<stop offset="1" stop-color="#F59120"/>
</linearGradient>
</defs>
</svg>
