<svg width="59" height="29" viewBox="0 0 59 29" fill="none" xmlns="http://www.w3.org/2000/svg">
<path d="M3.4712 3.51831C5.78537 1.17277 8.81851 0 11.8516 0C14.8846 0 17.9178 1.17277 20.2319 3.51824C20.7729 4.06663 21.2499 4.65523 21.6644 5.27389C20.0146 2.83701 17.2476 1.23768 14.1112 1.23768C9.05504 1.23768 4.95606 5.39208 4.95606 10.5169C4.95606 12.1635 5.38107 13.7086 6.12294 15.0492C6.3005 15.3938 6.51188 15.7249 6.75405 16.0392C7.21112 16.6638 7.744 17.2275 8.33847 17.7177L11.8515 21.2784L15.6607 25.1392L11.8515 29L3.4712 20.5063C-1.15707 15.8151 -1.15707 8.20945 3.4712 3.51831Z" fill="url(#paint0_linear_7762_5745)"/>
<path d="M4.87109 10.4595C4.87109 5.31143 8.9886 1.13818 14.0677 1.13818C17.2183 1.13818 19.9979 2.74472 21.6551 5.19267C21.6782 5.22716 21.7016 5.26137 21.7243 5.296C21.7932 5.40063 21.8606 5.50625 21.9254 5.6138C21.9304 5.62201 21.9351 5.63022 21.9402 5.63844C24.7678 10.2891 24.1936 16.4628 20.2162 20.4941L17.5589 23.1873L13.7325 19.3089L16.3898 16.6156C18.9216 14.0493 18.9216 9.87381 16.3898 7.30753C15.1632 6.06435 13.5325 5.3797 11.798 5.3797C10.0634 5.3797 8.43267 6.06428 7.20612 7.30753C5.15202 9.38948 4.7647 12.5305 6.0434 15.0123C5.29801 13.6656 4.87109 12.1134 4.87109 10.4595Z" fill="url(#paint1_linear_7762_5745)"/>
<path d="M7.64844 12.1774C7.64844 14.4382 9.45854 16.2694 11.6891 16.2694C13.9196 16.2694 15.7297 14.4382 15.7297 12.1774C15.7297 11.5159 15.575 10.8919 15.2991 10.3395C14.6363 8.99935 13.2669 8.08203 11.6891 8.08203C10.1111 8.08203 8.74521 8.99585 8.08247 10.3326C7.80324 10.8885 7.64844 11.5126 7.64844 12.1774Z" fill="url(#paint2_linear_7762_5745)"/>
<path d="M56.9834 12.1488C55.8414 13.2886 54.3678 13.8189 52.7678 13.8189C48.6478 13.8189 46.9046 10.9437 46.8878 8.02073C46.8723 5.08139 48.7588 2.09369 52.7678 2.09369C54.2724 2.09369 55.6994 2.67243 56.8401 3.81285L55.4453 5.17758C54.7163 4.45501 53.7343 4.11758 52.7678 4.11758C50.0891 4.11758 48.933 6.14139 48.9484 8.02073C48.9639 9.88372 50.0258 11.8271 52.7678 11.8271C53.7343 11.8271 54.8272 11.4256 55.5563 10.6867L56.9834 12.1488Z" fill="black"/>
<path d="M28.9228 8.71974V6.93216H30.5718C31.7316 6.93216 32.956 6.61765 32.9727 5.54186C32.9727 4.87978 32.4501 4.00259 30.6212 4.00259C29.6087 4.00259 28.237 4.36673 28.237 5.42602H26.0814C26.0814 2.9268 28.5309 2.01648 30.6371 2.01648C32.7927 2.01648 35.1115 3.07577 35.1282 5.54193C35.1282 6.45225 34.5403 7.51154 33.5438 7.82598C34.6383 8.19013 35.4054 9.28248 35.4054 10.259C35.4054 13.0893 32.7767 13.9334 30.5718 13.9334C28.4003 13.9334 25.9181 13.0065 25.9014 10.3749H28.0736C28.0736 11.5666 29.6573 11.9804 30.5885 11.9804C31.6822 11.9804 33.1359 11.517 33.1359 10.2756C33.1359 9.58042 32.76 8.71974 30.7024 8.71974H28.9228Z" fill="black"/>
<path d="M39.0163 5.74043V7.4783C39.5229 6.68382 40.764 6.25347 41.6618 6.25347C43.9647 6.25347 46.3815 7.22999 46.3815 10.1099C46.3815 12.6754 43.948 13.9498 41.6458 13.9498C39.3102 13.9498 36.8774 12.6754 36.8774 10.0768V5.75693C36.8774 3.17494 39.229 1.96667 41.5805 1.96667C44.0626 1.96667 46.2668 2.95977 46.2668 5.39279H44.1112C44.1112 4.36663 42.8375 3.85352 41.6131 3.85352C40.3226 3.83695 39.0162 4.54867 39.0162 5.80656V5.74043H39.0163ZM44.2419 10.11C44.2419 8.83554 43.0987 8.15695 41.6617 8.15695C40.2247 8.15695 39.0003 8.81904 39.0162 10.11C39.0329 11.3845 40.2414 11.9968 41.6457 11.9968C43.0008 11.9968 44.2419 11.3845 44.2419 10.11Z" fill="black"/>
<path d="M25.5464 21.4649C25.5464 18.2965 27.9324 15.9852 31.1487 15.9852C32.7797 15.9852 34.1991 16.5515 35.1657 17.6536L34.1845 18.6179C33.369 17.7455 32.3723 17.3475 31.2091 17.3475C28.8231 17.3475 27.0565 19.0925 27.0565 21.4649C27.0565 23.8374 28.8231 25.5823 31.2091 25.5823C32.3723 25.5823 33.369 25.1691 34.1845 24.2966L35.1657 25.2609C34.1992 26.363 32.7797 26.9446 31.1339 26.9446C27.9324 26.9445 25.5464 24.6332 25.5464 21.4649Z" fill="black"/>
<path d="M37.3267 16.1077H38.8368V26.822H37.3267V16.1077Z" fill="black"/>
<path d="M44.1083 17.4393H40.4839V16.1076H49.2273V17.4393H45.603V26.822H44.1083V17.4393Z" fill="black"/>
<path d="M54.8015 23.1179V26.822H53.3061V23.0873L49.1079 16.1077H50.7241L54.1069 21.7556L57.5043 16.1077H58.9998L54.8015 23.1179Z" fill="black"/>
<path d="M58.2784 7.83991C58.2784 8.64518 58.1478 9.44759 57.8918 10.2255C57.83 10.4139 57.9308 10.6174 58.1159 10.6806C58.3011 10.7418 58.5025 10.6418 58.5649 10.4535C58.8459 9.60221 58.9877 8.72288 58.9877 7.83991C58.9877 6.95694 58.8458 6.07768 58.5649 5.22635C58.5153 5.07609 58.3762 4.98047 58.228 4.98047C58.1904 4.98047 58.1535 4.98625 58.1159 4.99918C57.93 5.06174 57.83 5.26591 57.8918 5.45359C58.1479 6.23222 58.2784 7.03464 58.2784 7.83991ZM56.7717 10.2262C56.9597 10.2888 57.1583 10.1874 57.2207 9.99827C57.452 9.29441 57.569 8.5682 57.569 7.83984C57.569 7.11148 57.452 6.38534 57.2207 5.6814C57.171 5.53043 57.0327 5.43552 56.8838 5.43552C56.8461 5.43552 56.8093 5.44131 56.7717 5.45352C56.5858 5.51608 56.4858 5.72025 56.5475 5.90793C56.7547 6.53923 56.8597 7.18918 56.8597 7.83984C56.8597 8.4905 56.7547 9.14051 56.5475 9.77174C56.4858 9.96021 56.5858 10.1637 56.7717 10.2262Z" fill="black"/>
<defs>
<linearGradient id="paint0_linear_7762_5745" x1="2.3723" y1="21.62" x2="22.8554" y2="1.4109" gradientUnits="userSpaceOnUse">
<stop stop-color="#A51A17"/>
<stop offset="0.6468" stop-color="#D52C16"/>
</linearGradient>
<linearGradient id="paint1_linear_7762_5745" x1="29.6406" y1="1.24953" x2="-0.697257" y2="22.3347" gradientUnits="userSpaceOnUse">
<stop offset="0.4677" stop-color="#D52C16"/>
<stop offset="1" stop-color="#A51A17"/>
</linearGradient>
<linearGradient id="paint2_linear_7762_5745" x1="15.7297" y1="12.1758" x2="7.64845" y2="12.1758" gradientUnits="userSpaceOnUse">
<stop stop-color="#FFE300"/>
<stop offset="1" stop-color="#F29100"/>
</linearGradient>
</defs>
</svg>
